<svg width="1437" height="378" viewBox="0 0 1437 378" fill="none" xmlns="http://www.w3.org/2000/svg">
<path d="M228.451 80.5818V328H183.268L75.6269 172.276H73.8147V328H21.5041V80.5818H67.4118L174.208 236.185H176.382V80.5818H228.451ZM345.065 331.624C325.977 331.624 309.547 327.758 295.775 320.027C282.083 312.214 271.532 301.18 264.123 286.925C256.713 272.589 253.008 255.635 253.008 236.064C253.008 216.976 256.713 200.224 264.123 185.807C271.532 171.39 281.962 160.155 295.412 152.101C308.943 144.047 324.809 140.02 343.011 140.02C355.253 140.02 366.65 141.993 377.2 145.94C387.832 149.806 397.094 155.645 404.987 163.457C412.96 171.27 419.162 181.095 423.591 192.935C428.021 204.694 430.236 218.466 430.236 234.252V248.386H273.546V216.493H381.791C381.791 209.083 380.18 202.519 376.959 196.801C373.737 191.082 369.267 186.612 363.549 183.391C357.911 180.089 351.347 178.438 343.857 178.438C336.045 178.438 329.118 180.25 323.078 183.874C317.118 187.418 312.446 192.21 309.064 198.25C305.681 204.21 303.949 210.855 303.869 218.184V248.507C303.869 257.689 305.56 265.622 308.943 272.307C312.406 278.992 317.279 284.146 323.561 287.77C329.843 291.395 337.293 293.207 345.911 293.207C351.629 293.207 356.864 292.401 361.616 290.791C366.368 289.18 370.435 286.764 373.818 283.542C377.2 280.32 379.778 276.374 381.55 271.703L429.149 274.844C426.732 286.28 421.779 296.267 414.289 304.805C406.879 313.261 397.295 319.865 385.536 324.617C373.858 329.289 360.368 331.624 345.065 331.624ZM493.301 142.436L527.369 207.311L562.283 142.436H615.077L561.317 235.218L616.527 328H563.975L527.369 263.85L491.368 328H438.212L493.301 235.218L440.145 142.436H493.301ZM734.137 142.436V181.095H622.388V142.436H734.137ZM647.758 97.9784H699.223V270.978C699.223 275.73 699.948 279.435 701.398 282.092C702.848 284.67 704.861 286.482 707.438 287.529C710.096 288.576 713.157 289.099 716.62 289.099C719.036 289.099 721.452 288.898 723.869 288.495C726.285 288.012 728.137 287.65 729.426 287.408L737.52 325.705C734.943 326.51 731.319 327.436 726.647 328.483C721.976 329.611 716.298 330.295 709.613 330.537C697.21 331.02 686.337 329.369 676.994 325.584C667.732 321.798 660.524 315.919 655.369 307.946C650.215 299.972 647.678 289.905 647.758 277.743V97.9784ZM985.786 204.291C985.786 231.272 980.672 254.226 970.443 273.152C960.295 292.079 946.443 306.536 928.885 316.523C911.408 326.429 891.756 331.383 869.93 331.383C847.942 331.383 828.21 326.389 810.733 316.402C793.256 306.415 779.443 291.958 769.295 273.032C759.147 254.105 754.073 231.191 754.073 204.291C754.073 177.31 759.147 154.356 769.295 135.429C779.443 116.503 793.256 102.086 810.733 92.1795C828.21 82.1926 847.942 77.1991 869.93 77.1991C891.756 77.1991 911.408 82.1926 928.885 92.1795C946.443 102.086 960.295 116.503 970.443 135.429C980.672 154.356 985.786 177.31 985.786 204.291ZM932.751 204.291C932.751 186.814 930.133 172.075 924.898 160.075C919.744 148.074 912.455 138.973 903.032 132.772C893.609 126.57 882.575 123.469 869.93 123.469C857.285 123.469 846.251 126.57 836.828 132.772C827.405 138.973 820.076 148.074 814.841 160.075C809.686 172.075 807.109 186.814 807.109 204.291C807.109 221.768 809.686 236.507 814.841 248.507C820.076 260.508 827.405 269.609 836.828 275.81C846.251 282.012 857.285 285.113 869.93 285.113C882.575 285.113 893.609 282.012 903.032 275.81C912.455 269.609 919.744 260.508 924.898 248.507C930.133 236.507 932.751 221.768 932.751 204.291ZM1064.83 220.721V328H1013.36V142.436H1062.41V175.176H1064.59C1068.69 164.383 1075.58 155.846 1085.25 149.564C1094.91 143.201 1106.63 140.02 1120.4 140.02C1133.29 140.02 1144.52 142.839 1154.11 148.477C1163.69 154.115 1171.14 162.169 1176.46 172.639C1181.77 183.028 1184.43 195.432 1184.43 209.848V328H1132.97V219.03C1133.05 207.674 1130.15 198.814 1124.27 192.452C1118.39 186.008 1110.29 182.787 1099.98 182.787C1093.06 182.787 1086.94 184.277 1081.62 187.257C1076.39 190.237 1072.28 194.586 1069.3 200.304C1066.4 205.942 1064.91 212.748 1064.83 220.721ZM1299.35 331.624C1280.26 331.624 1263.83 327.758 1250.06 320.027C1236.37 312.214 1225.82 301.18 1218.41 286.925C1211 272.589 1207.3 255.635 1207.3 236.064C1207.3 216.976 1211 200.224 1218.41 185.807C1225.82 171.39 1236.25 160.155 1249.7 152.101C1263.23 144.047 1279.1 140.02 1297.3 140.02C1309.54 140.02 1320.94 141.993 1331.49 145.94C1342.12 149.806 1351.38 155.645 1359.27 163.457C1367.25 171.27 1373.45 181.095 1377.88 192.935C1382.31 204.694 1384.52 218.466 1384.52 234.252V248.386H1227.83V216.493H1336.08C1336.08 209.083 1334.47 202.519 1331.25 196.801C1328.02 191.082 1323.55 186.612 1317.84 183.391C1312.2 180.089 1305.63 178.438 1298.14 178.438C1290.33 178.438 1283.41 180.25 1277.37 183.874C1271.41 187.418 1266.73 192.21 1263.35 198.25C1259.97 204.21 1258.24 210.855 1258.16 218.184V248.507C1258.16 257.689 1259.85 265.622 1263.23 272.307C1266.69 278.992 1271.57 284.146 1277.85 287.77C1284.13 291.395 1291.58 293.207 1300.2 293.207C1305.92 293.207 1311.15 292.401 1315.9 290.791C1320.66 289.18 1324.72 286.764 1328.11 283.542C1331.49 280.32 1334.07 276.374 1335.84 271.703L1383.44 274.844C1381.02 286.28 1376.07 296.267 1368.58 304.805C1361.17 313.261 1351.58 319.865 1339.82 324.617C1328.15 329.289 1314.66 331.624 1299.35 331.624Z" fill="#FF3B30"/>
<path d="M1323.4 25.6558V16.9273H1364.52V25.6558H1349.19V67H1338.73V25.6558H1323.4ZM1369.23 16.9273H1382.29L1396.07 50.5699H1396.66L1410.45 16.9273H1423.51V67H1413.24V34.4087H1412.82L1399.86 66.7555H1392.87L1379.91 34.2865H1379.5V67H1369.23V16.9273Z" fill="#FF3B30"/>
</svg>
